<svg width="17" height="24" viewBox="0 0 17 24" fill="none" xmlns="http://www.w3.org/2000/svg">
<path d="M7.71857 0.220328C7.78823 0.150487 7.87099 0.0950763 7.9621 0.0572688C8.05322 0.0194612 8.15089 0 8.24954 0C8.34818 0 8.44586 0.0194612 8.53697 0.0572688C8.62808 0.0950763 8.71084 0.150487 8.78051 0.220328C9.57696 1.01828 11.4864 3.31615 13.1993 6.0745C14.8942 8.80435 16.4991 12.1492 16.4991 15.0005C16.4991 17.7663 15.7071 20.0282 14.2342 21.6061C12.7598 23.1885 10.6734 24 8.24954 24C5.82717 24 3.74079 23.1885 2.26487 21.6061C0.790456 20.0282 0 17.7663 0 15.0005C0 12.1477 1.60491 8.80585 3.29982 6.0745C5.01272 3.31465 6.92211 1.01978 7.71857 0.220328ZM4.57474 6.86496C2.89484 9.57231 1.49992 12.6036 1.49992 15.0005C1.49992 17.4844 2.20788 19.3473 3.35981 20.5817C4.51025 21.8116 6.17365 22.5001 8.24954 22.5001C10.3269 22.5001 11.9903 21.8116 13.1393 20.5817C14.2912 19.3473 14.9992 17.4844 14.9992 15.0005C14.9992 12.6036 13.6042 9.57081 11.9243 6.86496C10.8302 5.10291 9.60165 3.42802 8.24954 1.85524C6.89741 3.42801 5.66882 5.1029 4.57474 6.86496Z" fill="#F2FBFF"/>
<path d="M4.57474 6.86496C2.89484 9.57231 1.49992 12.6036 1.49992 15.0005C1.49992 17.4844 2.20788 19.3473 3.35981 20.5817C4.51025 21.8116 6.17365 22.5001 8.24954 22.5001C10.3269 22.5001 11.9903 21.8116 13.1393 20.5817C14.2912 19.3473 14.9992 17.4844 14.9992 15.0005C14.9992 12.6036 13.6042 9.57081 11.9243 6.86496C10.8302 5.10291 9.60165 3.42802 8.24954 1.85524C6.89741 3.42801 5.66882 5.1029 4.57474 6.86496Z" fill="#F2FBFF"/>
</svg>
