<svg width="22" height="22" viewBox="0 0 22 22" fill="none" xmlns="http://www.w3.org/2000/svg">
<path d="M21.031 2.64026C21.0605 2.28713 21.0126 1.93183 20.8907 1.5991C20.7688 1.26637 20.5759 0.964211 20.3253 0.713682C20.0747 0.463153 19.7724 0.270276 19.4397 0.148488C19.1069 0.0266996 18.7516 -0.0210706 18.3985 0.00850555L6.01298 1.04126C3.94523 1.21376 3.02423 3.72626 4.49198 5.19326L5.92673 6.62876L0.71348 11.845C0.256633 12.3021 0 12.9219 0 13.5681C0 14.2144 0.256633 14.8342 0.71348 15.2913L5.74748 20.329C5.97383 20.5554 6.24258 20.7351 6.53837 20.8576C6.83415 20.9802 7.15119 21.0432 7.47135 21.0432C7.79152 21.0432 8.10856 20.9802 8.40434 20.8576C8.70013 20.7351 8.96888 20.5554 9.19523 20.329L14.4115 15.1135L15.8462 16.5483C17.314 18.0153 19.8265 17.095 19.999 15.0273L21.0317 2.64026H21.031Z" fill="#FFC700"/>
</svg>
