<svg width="24" height="20" viewBox="0 0 24 20" fill="none" xmlns="http://www.w3.org/2000/svg">
<path d="M20.3244 6.97127C20.802 6.95745 21.2775 7.03959 21.7228 7.21283C22.1681 7.38607 22.5742 7.64688 22.9169 7.97983C23.2596 8.31279 23.5321 8.71111 23.7181 9.15122C23.9041 9.59134 24 10.0643 24 10.5421C24 11.0199 23.9041 11.4929 23.7181 11.933C23.5321 12.3731 23.2596 12.7715 22.9169 13.1044C22.5742 13.4374 22.1681 13.6982 21.7228 13.8714C21.2775 14.0447 20.802 14.1268 20.3244 14.113H20.2915L20.1571 14.1219H18.3575C18.686 14.6282 18.8757 15.2301 18.8757 15.8768C18.8757 17.6913 17.5122 19.1415 15.7126 19.1415C13.9234 19.1415 12.8541 18.105 12.5643 16.6578C12.5314 16.4662 12.5745 16.2694 12.6844 16.109C12.7944 15.9487 12.9625 15.8376 13.1531 15.7992C13.3437 15.7609 13.5417 15.7985 13.7051 15.9038C13.8685 16.0092 13.9843 16.1742 14.0279 16.3636C14.1877 17.1596 14.6925 17.648 15.7126 17.648C16.6669 17.648 17.3822 16.8863 17.3822 15.8768C17.3822 14.906 16.5818 14.1145 15.5901 14.1145L0.748106 14.1219C0.561504 14.1223 0.381536 14.0528 0.24364 13.927C0.105745 13.8013 0.0199163 13.6285 0.00305596 13.4427C-0.0138044 13.2568 0.0395255 13.0714 0.152544 12.923C0.265562 12.7745 0.430078 12.6737 0.613694 12.6404L0.748106 12.6285H15.4885L15.5901 12.6195C15.6692 12.6195 15.7469 12.6225 15.8246 12.6285H20.1586L20.1899 12.6315L20.3244 12.6195C21.4056 12.6195 22.2942 11.7966 22.3943 10.7422L22.4047 10.5436C22.4218 9.99246 22.2192 9.45711 21.8415 9.05534C21.4638 8.65357 20.942 8.41828 20.3908 8.40125C20.1179 8.39282 19.846 8.43822 19.5907 8.53487C19.3353 8.63151 19.1015 8.77751 18.9025 8.96452C18.5008 9.3422 18.2655 9.86402 18.2485 10.4152C18.2328 10.61 18.1415 10.791 17.9939 10.9192C17.8464 11.0474 17.6544 11.1127 17.4593 11.1009C17.2642 11.0892 17.0814 11.0014 16.9503 10.8565C16.8192 10.7115 16.7501 10.5209 16.758 10.3256C16.8139 9.41772 17.214 8.56537 17.8767 7.94235C18.5394 7.31933 19.4148 6.97256 20.3244 6.97276V6.97127ZM11.5906 9.65053H0.748106C0.561504 9.65087 0.381536 9.58134 0.24364 9.45562C0.105745 9.3299 0.0199163 9.15711 0.00305596 8.97127C-0.0138044 8.78543 0.0395255 8.60002 0.152544 8.45154C0.265562 8.30305 0.430078 8.20227 0.613694 8.16902L0.748106 8.15707H11.5906C12.2495 8.15707 12.8937 7.9617 13.4416 7.59565C13.9895 7.2296 14.4165 6.70932 14.6687 6.10058C14.921 5.49184 14.987 4.82198 14.8586 4.17569C14.7302 3.52941 14.413 2.93572 13.9472 2.46968C13.4813 2.00365 12.8878 1.6862 12.2416 1.55746C11.5953 1.42873 10.9254 1.4945 10.3166 1.74646C9.70773 1.99841 9.18726 2.42524 8.82096 2.97297C8.45467 3.5207 8.259 4.16475 8.25871 4.82367C8.25871 5.02172 8.18004 5.21165 8.04 5.35169C7.89996 5.49173 7.71002 5.5704 7.51198 5.5704C7.31393 5.5704 7.124 5.49173 6.98396 5.35169C6.84392 5.21165 6.76525 5.02172 6.76525 4.82367C6.76558 3.88204 7.04141 2.96108 7.55875 2.17429C8.07609 1.3875 8.81233 0.769268 9.67673 0.395787C10.5411 0.0223059 11.4959 -0.0901035 12.4234 0.0724125C13.3509 0.234928 14.2106 0.665267 14.8965 1.31039C15.5825 1.95552 16.0646 2.78724 16.2836 3.70305C16.5027 4.61886 16.4489 5.57874 16.1291 6.46439C15.8092 7.35004 15.2373 8.12276 14.4836 8.68731C13.73 9.25186 12.8277 9.58357 11.8878 9.64157L11.5906 9.65053H0.748106H11.5906Z" fill="#F2FBFF"/>
</svg>
