<svg width="120" height="120" viewBox="0 0 120 120" fill="none" xmlns="http://www.w3.org/2000/svg">
<path d="M60 0C61.1366 0 62.2267 0.451529 63.0305 1.25526C63.8342 2.05898 64.2857 3.14907 64.2857 4.28571V12.8571C64.2857 13.9938 63.8342 15.0839 63.0305 15.8876C62.2267 16.6913 61.1366 17.1429 60 17.1429C58.8634 17.1429 57.7733 16.6913 56.9695 15.8876C56.1658 15.0839 55.7143 13.9938 55.7143 12.8571V4.28571C55.7143 3.14907 56.1658 2.05898 56.9695 1.25526C57.7733 0.451529 58.8634 0 60 0ZM103.744 22.3157C104.154 21.9204 104.48 21.4475 104.705 20.9246C104.929 20.4017 105.048 19.8393 105.052 19.2703C105.057 18.7012 104.949 18.1369 104.734 17.6102C104.518 17.0835 104.2 16.605 103.797 16.2026C103.395 15.8002 102.916 15.482 102.39 15.2665C101.863 15.051 101.299 14.9426 100.73 14.9475C100.161 14.9524 99.5983 15.0707 99.0754 15.2953C98.5525 15.5199 98.0796 15.8464 97.6843 16.2557L91.2557 22.6843C90.475 23.4926 90.0431 24.5752 90.0528 25.6989C90.0626 26.8226 90.5133 27.8975 91.3079 28.6921C92.1025 29.4867 93.1774 29.9374 94.3011 29.9472C95.4248 29.9569 96.5074 29.525 97.3157 28.7443L103.744 22.3157ZM16.2557 16.2557C17.0594 15.4523 18.1493 15.0009 19.2857 15.0009C20.4221 15.0009 21.512 15.4523 22.3157 16.2557L28.7443 22.6843C29.525 23.4926 29.9569 24.5752 29.9472 25.6989C29.9374 26.8226 29.4867 27.8975 28.6921 28.6921C27.8975 29.4867 26.8226 29.9374 25.6989 29.9472C24.5752 29.9569 23.4926 29.525 22.6843 28.7443L16.2557 22.3157C15.4523 21.512 15.0009 20.4221 15.0009 19.2857C15.0009 18.1493 15.4523 17.0594 16.2557 16.2557ZM30 60C30 52.0435 33.1607 44.4129 38.7868 38.7868C44.4129 33.1607 52.0435 30 60 30C67.9565 30 75.5871 33.1607 81.2132 38.7868C86.8393 44.4129 90 52.0435 90 60C90 67.9565 86.8393 75.5871 81.2132 81.2132C75.5871 86.8393 67.9565 90 60 90C52.0435 90 44.4129 86.8393 38.7868 81.2132C33.1607 75.5871 30 67.9565 30 60ZM60 38.5714C54.3168 38.5714 48.8663 40.8291 44.8477 44.8477C40.8291 48.8663 38.5714 54.3168 38.5714 60C38.5714 65.6832 40.8291 71.1336 44.8477 75.1523C48.8663 79.1709 54.3168 81.4286 60 81.4286C65.6832 81.4286 71.1336 79.1709 75.1523 75.1523C79.1709 71.1336 81.4286 65.6832 81.4286 60C81.4286 54.3168 79.1709 48.8663 75.1523 44.8477C71.1336 40.8291 65.6832 38.5714 60 38.5714ZM102.857 60.09C102.857 58.9534 103.309 57.8633 104.112 57.0595C104.916 56.2558 106.006 55.8043 107.143 55.8043H115.714C116.851 55.8043 117.941 56.2558 118.745 57.0595C119.548 57.8633 120 58.9534 120 60.09C120 61.2266 119.548 62.3167 118.745 63.1205C117.941 63.9242 116.851 64.3757 115.714 64.3757H107.143C106.006 64.3757 104.916 63.9242 104.112 63.1205C103.309 62.3167 102.857 61.2266 102.857 60.09ZM4.28571 55.7143C3.14907 55.7143 2.05898 56.1658 1.25526 56.9695C0.451529 57.7733 0 58.8634 0 60C0 61.1366 0.451529 62.2267 1.25526 63.0305C2.05898 63.8342 3.14907 64.2857 4.28571 64.2857H12.8571C13.9938 64.2857 15.0839 63.8342 15.8876 63.0305C16.6913 62.2267 17.1429 61.1366 17.1429 60C17.1429 58.8634 16.6913 57.7733 15.8876 56.9695C15.0839 56.1658 13.9938 55.7143 12.8571 55.7143H4.28571ZM91.2557 91.2557C92.0594 90.4523 93.1493 90.0009 94.2857 90.0009C95.4221 90.0009 96.512 90.4523 97.3157 91.2557L103.744 97.6843C104.154 98.0796 104.48 98.5525 104.705 99.0754C104.929 99.5983 105.048 100.161 105.052 100.73C105.057 101.299 104.949 101.863 104.734 102.39C104.518 102.916 104.2 103.395 103.797 103.797C103.395 104.2 102.916 104.518 102.39 104.734C101.863 104.949 101.299 105.057 100.73 105.052C100.161 105.048 99.5983 104.929 99.0754 104.705C98.5525 104.48 98.0796 104.154 97.6843 103.744L91.2557 97.3157C90.4523 96.512 90.0009 95.4221 90.0009 94.2857C90.0009 93.1493 90.4523 92.0594 91.2557 91.2557ZM28.7443 97.3157C29.1536 96.9204 29.4801 96.4475 29.7047 95.9246C29.9293 95.4017 30.0476 94.8393 30.0525 94.2703C30.0574 93.7012 29.949 93.1369 29.7335 92.6102C29.518 92.0835 29.1998 91.605 28.7974 91.2026C28.395 90.8002 27.9165 90.482 27.3898 90.2665C26.8631 90.051 26.2988 89.9426 25.7297 89.9475C25.1607 89.9524 24.5983 90.0707 24.0754 90.2953C23.5525 90.5199 23.0796 90.8464 22.6843 91.2557L16.2557 97.6843C15.8464 98.0796 15.5199 98.5525 15.2953 99.0754C15.0707 99.5983 14.9524 100.161 14.9475 100.73C14.9426 101.299 15.051 101.863 15.2665 102.39C15.482 102.916 15.8002 103.395 16.2026 103.797C16.605 104.2 17.0835 104.518 17.6102 104.734C18.1369 104.949 18.7012 105.057 19.2703 105.052C19.8393 105.048 20.4017 104.929 20.9246 104.705C21.4475 104.48 21.9204 104.154 22.3157 103.744L28.7443 97.3157ZM64.2686 107.224C64.2686 106.088 63.817 104.998 63.0133 104.194C62.2096 103.39 61.1195 102.939 59.9829 102.939C58.8462 102.939 57.7561 103.39 56.9524 104.194C56.1487 104.998 55.6971 106.088 55.6971 107.224V115.714C55.6971 116.851 56.1487 117.941 56.9524 118.745C57.7561 119.548 58.8462 120 59.9829 120C61.1195 120 62.2096 119.548 63.0133 118.745C63.817 117.941 64.2686 116.851 64.2686 115.714V107.229V107.224Z" fill="#FFC700"/>
</svg>
