<svg width="120" height="99" viewBox="0 0 120 99" fill="none" xmlns="http://www.w3.org/2000/svg">
<path d="M64.61 24.613C84.1114 24.613 95.1747 37.5196 96.7811 53.1097H97.2735C109.826 53.1097 120 63.259 120 75.7748C120 88.2937 109.826 98.4398 97.2735 98.4398H31.9434C19.3968 98.4398 9.2229 88.2937 9.2229 75.7748C9.2229 63.259 19.3968 53.1097 31.9464 53.1097H32.4388C34.0575 37.4181 45.1085 24.613 64.61 24.613ZM64.61 32.2911C51.4972 32.2911 40.0677 42.902 40.0677 57.5566C40.0677 59.88 38.0458 61.7049 35.7347 61.7049H31.3648C23.3789 61.7049 16.9102 68.2075 16.9102 76.2302C16.9102 84.2561 23.382 90.7617 31.3648 90.7617H97.8551C105.838 90.7617 112.31 84.2561 112.31 76.2333C112.31 68.2075 105.838 61.7018 97.8551 61.7018H93.4852C91.171 61.7018 89.1522 59.88 89.1522 57.5597C89.1522 42.7143 77.7228 32.2911 64.61 32.2911Z" fill="#F2F2F2"/>
<path d="M14.5096 50.1356C14.8714 51.0111 14.8958 51.9896 14.5781 52.882C14.2604 53.7745 13.623 54.5174 12.7893 54.9672L12.4354 55.1364L5.32356 58.0938C4.41542 58.4804 3.39299 58.501 2.47001 58.1514C1.54702 57.8017 0.794919 57.1088 0.370927 56.2175C-0.0530653 55.3262 -0.116129 54.3055 0.194919 53.3688C0.505967 52.4321 1.16705 51.6518 2.03997 51.1912L2.39387 51.0219L9.50574 48.0645C10.4436 47.6763 11.4972 47.6764 12.4349 48.0648C13.3727 48.4531 14.1209 49.198 14.5096 50.1356ZM54.5158 20.4633L54.325 20.5249C51.4784 21.4543 48.8349 22.6852 46.4161 24.187C43.111 22.7885 39.447 22.4767 35.9532 23.2967C32.4594 24.1167 29.3166 26.0259 26.9788 28.7487C24.641 31.4715 23.2291 34.8669 22.9471 38.4445C22.665 42.0222 23.5274 45.5969 25.4098 48.6523C23.093 49.4797 20.8929 50.603 18.8641 51.9944C16.0327 47.1452 14.9711 41.464 15.8605 35.9197C16.7499 30.3753 19.5351 25.3111 23.7412 21.5909C27.9473 17.8706 33.3136 15.7247 38.9251 15.5191C44.5366 15.3135 50.0488 17.0609 54.5158 20.4633ZM4.88041 21.0173L5.27124 21.1588L12.4077 24.2024C14.3465 25.021 15.2759 27.2644 14.485 29.2155C13.7464 31.0342 11.7676 31.9544 9.93043 31.4004L9.54267 31.2619L2.4031 28.2184C1.47047 27.82 0.731028 27.0721 0.343298 26.135C-0.0444313 25.1979 -0.049587 24.1462 0.328935 23.2053C1.06751 21.3866 3.0432 20.4664 4.88041 21.0203V21.0173ZM27.5547 2.02047L27.724 2.37438L30.6783 9.47086C31.0489 10.3805 31.0575 11.3975 30.7023 12.3133C30.3472 13.2291 29.6551 13.9744 28.768 14.3962C27.881 14.8181 26.8661 14.8847 25.9316 14.5823C24.997 14.2799 24.2136 13.6314 23.7418 12.7698L23.5725 12.4159L20.6182 5.31945C20.2476 4.40979 20.239 3.3928 20.5942 2.477C20.9493 1.56119 21.6414 0.815948 22.5285 0.394065C23.4155 -0.0278186 24.4304 -0.0943804 25.3649 0.208028C26.2995 0.510437 27.083 1.1589 27.5547 2.02047ZM55.4021 0.29713C57.2516 1.0634 58.1964 3.09756 57.6486 4.97478L57.507 5.37484L54.4543 12.379C54.0676 13.2891 53.3488 14.0178 52.444 14.4169C51.5393 14.816 50.5165 14.8555 49.5837 14.5274C48.6508 14.1994 47.8779 13.5283 47.4222 12.6508C46.9664 11.7732 46.8619 10.755 47.1301 9.80322L47.2716 9.40316L50.3182 2.39899C50.514 1.92716 50.8008 1.49852 51.1623 1.13753C51.5237 0.776544 51.9528 0.490289 52.4248 0.295111C52.8969 0.0999327 53.4028 -0.000345289 53.9137 8.93272e-07C54.4245 0.000347076 54.9303 0.101312 55.4021 0.29713Z" fill="#FFC700"/>
</svg>
