<svg width="120" height="120" viewBox="0 0 120 120" fill="none" xmlns="http://www.w3.org/2000/svg">
<path d="M64.61 35.613C84.1115 35.613 95.1747 48.5196 96.7811 64.1097H97.2735C109.826 64.1097 120 74.259 120 86.7748C120 99.2937 109.826 109.44 97.2735 109.44H31.9434C19.3968 109.44 9.2229 99.2937 9.2229 86.7748C9.2229 74.259 19.3968 64.1097 31.9464 64.1097H32.4388C34.0575 48.4181 45.1085 35.613 64.61 35.613ZM64.61 43.2911C51.4972 43.2911 40.0677 53.902 40.0677 68.5566C40.0677 70.88 38.0458 72.7049 35.7347 72.7049H31.3648C23.3789 72.7049 16.9102 79.2075 16.9102 87.2302C16.9102 95.2561 23.382 101.762 31.3648 101.762H97.8551C105.838 101.762 112.31 95.2561 112.31 87.2333C112.31 79.2075 105.838 72.7018 97.8551 72.7018H93.4852C91.171 72.7018 89.1522 70.88 89.1522 68.5597C89.1522 53.7143 77.7228 43.2911 64.61 43.2911Z" fill="#F2F2F2"/>
<path d="M14.5096 61.1356C14.8714 62.0111 14.8958 62.9896 14.5781 63.882C14.2604 64.7745 13.623 65.5174 12.7893 65.9672L12.4354 66.1364L5.32356 69.0938C4.41542 69.4804 3.39299 69.501 2.47001 69.1514C1.54702 68.8017 0.794919 68.1088 0.370927 67.2175C-0.0530653 66.3262 -0.116129 65.3055 0.194919 64.3688C0.505967 63.4321 1.16705 62.6518 2.03997 62.1912L2.39387 62.0219L9.50574 59.0645C10.4436 58.6763 11.4972 58.6764 12.4349 59.0648C13.3727 59.4531 14.1209 60.198 14.5096 61.1356ZM54.5158 31.4633L54.325 31.5249C51.4784 32.4543 48.8349 33.6852 46.4161 35.187C43.111 33.7885 39.447 33.4767 35.9532 34.2967C32.4594 35.1167 29.3166 37.0259 26.9788 39.7487C24.641 42.4715 23.2291 45.8669 22.9471 49.4445C22.665 53.0222 23.5274 56.5969 25.4098 59.6523C23.093 60.4797 20.8929 61.603 18.8641 62.9944C16.0327 58.1452 14.9711 52.464 15.8605 46.9197C16.7499 41.3753 19.5351 36.3111 23.7412 32.5909C27.9473 28.8706 33.3136 26.7247 38.9251 26.5191C44.5366 26.3135 50.0488 28.0609 54.5158 31.4633ZM4.88041 32.0173L5.27124 32.1588L12.4077 35.2024C14.3465 36.021 15.2759 38.2644 14.485 40.2155C13.7464 42.0342 11.7676 42.9544 9.93043 42.4004L9.54267 42.2619L2.4031 39.2184C1.47047 38.82 0.731028 38.0721 0.343298 37.135C-0.0444313 36.1979 -0.049587 35.1462 0.328935 34.2053C1.06751 32.3866 3.0432 31.4664 4.88041 32.0203V32.0173ZM27.5547 13.0205L27.724 13.3744L30.6783 20.4709C31.0489 21.3805 31.0575 22.3975 30.7023 23.3133C30.3472 24.2291 29.6551 24.9744 28.768 25.3962C27.881 25.8181 26.8661 25.8847 25.9316 25.5823C24.997 25.2799 24.2136 24.6314 23.7418 23.7698L23.5725 23.4159L20.6182 16.3194C20.2476 15.4098 20.239 14.3928 20.5942 13.477C20.9493 12.5612 21.6414 11.8159 22.5285 11.3941C23.4155 10.9722 24.4304 10.9056 25.3649 11.208C26.2995 11.5104 27.083 12.1589 27.5547 13.0205ZM55.4021 11.2971C57.2516 12.0634 58.1964 14.0976 57.6486 15.9748L57.507 16.3748L54.4543 23.379C54.0676 24.2891 53.3488 25.0178 52.444 25.4169C51.5393 25.816 50.5165 25.8555 49.5837 25.5274C48.6508 25.1994 47.8779 24.5283 47.4222 23.6508C46.9664 22.7732 46.8619 21.755 47.1301 20.8032L47.2716 20.4032L50.3182 13.399C50.514 12.9272 50.8008 12.4985 51.1623 12.1375C51.5237 11.7765 51.9528 11.4903 52.4248 11.2951C52.8969 11.0999 53.4028 10.9997 53.9137 11C54.4245 11.0003 54.9303 11.1013 55.4021 11.2971Z" fill="#FFC700"/>
</svg>
