<svg width="120" height="83" viewBox="0 0 120 83" fill="none" xmlns="http://www.w3.org/2000/svg">
<path d="M60 0C81.1275 0 93.1125 14.4225 94.8525 31.845H95.3775C108.983 31.845 120 43.185 120 57.1725C120 71.16 108.975 82.5 95.385 82.5H24.615C11.0175 82.5 0 71.16 0 57.1725C0 43.65 10.2975 32.6025 23.265 31.8825L25.1475 31.845C26.9025 14.31 38.8725 0 60 0ZM60 7.5C44.145 7.5 34.1325 17.37 32.61 32.5875C32.4258 34.4388 31.5601 36.1556 30.181 37.4044C28.802 38.6532 27.008 39.3448 25.1475 39.345H24.6225C15.2025 39.345 7.5 47.28 7.5 57.1725C7.5 67.0725 15.21 75 24.615 75H95.385C104.79 75 112.5 67.065 112.5 57.1725C112.5 47.2725 104.79 39.345 95.385 39.345H94.8525C92.9932 39.345 91.2002 38.6544 89.8213 37.4072C88.4424 36.1599 87.5759 34.445 87.39 32.595C85.875 17.4375 75.8175 7.5 60 7.5Z" fill="#F2F2F2"/>
</svg>
