<svg width="120" height="120" viewBox="0 0 120 120" fill="none" xmlns="http://www.w3.org/2000/svg">
<path d="M60 19C81.1275 19 93.1125 33.4225 94.8525 50.845H95.3775C108.983 50.845 120 62.185 120 76.1725C120 90.16 108.975 101.5 95.385 101.5H24.615C11.0175 101.5 0 90.16 0 76.1725C0 62.65 10.2975 51.6025 23.265 50.8825L25.1475 50.845C26.9025 33.31 38.8725 19 60 19ZM60 26.5C44.145 26.5 34.1325 36.37 32.61 51.5875C32.4258 53.4388 31.5601 55.1556 30.181 56.4044C28.802 57.6532 27.008 58.3448 25.1475 58.345H24.6225C15.2025 58.345 7.5 66.28 7.5 76.1725C7.5 86.0725 15.21 94 24.615 94H95.385C104.79 94 112.5 86.065 112.5 76.1725C112.5 66.2725 104.79 58.345 95.385 58.345H94.8525C92.9932 58.345 91.2002 57.6544 89.8213 56.4072C88.4424 55.1599 87.5759 53.445 87.39 51.595C85.875 36.4375 75.8175 26.5 60 26.5Z" fill="#F2F2F2"/>
</svg>
