<svg width="120" height="88" viewBox="0 0 120 88" fill="none" xmlns="http://www.w3.org/2000/svg">
<path d="M66.0003 16.0007C85.0123 16.0007 95.7978 28.5834 97.3669 43.7821H97.8469C110.082 43.7821 120 53.6766 120 65.8782C120 78.0829 110.082 87.9744 97.8469 87.9744H34.1537C21.9191 87.9744 12.0006 78.0829 12.0006 65.8782C12.0006 53.9196 21.5291 44.1782 33.4217 43.7941L34.6367 43.7821C36.2148 28.4844 46.9884 16.0007 66.0003 16.0007ZM66.0003 23.4861C53.2197 23.4861 42.0741 33.8306 42.0741 48.1174C42.0741 50.3825 40.106 52.1586 37.8529 52.1586H33.5897C25.8043 52.1586 19.495 58.5009 19.495 66.3253C19.495 74.1467 25.8043 80.489 33.5867 80.489H98.4079C106.193 80.489 112.5 74.1467 112.5 66.3253C112.5 58.5009 106.193 52.1586 98.4079 52.1586H94.1477C91.8916 52.1586 89.9235 50.3825 89.9235 48.1204C89.9235 33.6476 78.7839 23.4861 66.0003 23.4861Z" fill="#D9D9D9"/>
<path d="M48.0007 3.26431e-06C52.6025 -0.00220698 57.1354 1.11802 61.2064 3.26357C65.2774 5.40911 68.7636 8.51522 71.3629 12.3126C67.9386 11.9078 64.4795 11.8907 61.0514 12.2616C57.4284 9.1209 52.7955 7.3902 48.0007 7.38637C38.1482 7.38637 29.7508 14.6557 28.0707 24.4752L27.1287 29.9655C27.0097 30.6638 26.6474 31.2975 26.1059 31.7544C25.5645 32.2112 24.8789 32.4618 24.1705 32.4616H18.3292C12.1399 32.4616 7.12366 37.5919 7.12366 43.9252C7.12366 47.2434 8.50373 50.2315 10.7028 52.3256C9.39817 54.2772 8.34575 56.3861 7.57068 58.6019C4.33944 56.0781 1.97654 52.6086 0.8116 48.6774C-0.353342 44.7463 -0.262228 40.5496 1.07223 36.6727C2.40669 32.7958 4.91794 29.4321 8.25568 27.0509C11.5934 24.6696 15.5912 23.3895 19.6913 23.3892H20.1173C21.2763 16.8358 24.7061 10.8999 29.8048 6.62298C34.9036 2.34603 41.3457 0.00123306 48.0007 3.26431e-06Z" fill="#343434"/>
</svg>
