<svg width="120" height="120" viewBox="0 0 120 120" fill="none" xmlns="http://www.w3.org/2000/svg">
<path d="M66.0003 32.0007C85.0123 32.0007 95.7978 44.5834 97.3669 59.7821H97.8469C110.082 59.7821 120 69.6766 120 81.8782C120 94.0829 110.082 103.974 97.8469 103.974H34.1537C21.9191 103.974 12.0006 94.0829 12.0006 81.8782C12.0006 69.9196 21.5291 60.1782 33.4217 59.7941L34.6367 59.7821C36.2148 44.4844 46.9884 32.0007 66.0003 32.0007ZM66.0003 39.4861C53.2197 39.4861 42.0741 49.8306 42.0741 64.1174C42.0741 66.3825 40.106 68.1586 37.8529 68.1586H33.5897C25.8043 68.1586 19.495 74.5009 19.495 82.3253C19.495 90.1467 25.8043 96.489 33.5867 96.489H98.4079C106.193 96.489 112.5 90.1467 112.5 82.3253C112.5 74.5009 106.193 68.1586 98.4079 68.1586H94.1477C91.8916 68.1586 89.9235 66.3825 89.9235 64.1204C89.9235 49.6476 78.7839 39.4861 66.0003 39.4861Z" fill="#D9D9D9"/>
<path d="M48.0007 16C52.6025 15.9978 57.1354 17.118 61.2064 19.2636C65.2774 21.4091 68.7636 24.5152 71.3629 28.3126C67.9386 27.9078 64.4795 27.8907 61.0514 28.2616C57.4284 25.1209 52.7955 23.3902 48.0007 23.3864C38.1482 23.3864 29.7508 30.6557 28.0707 40.4752L27.1287 45.9655C27.0097 46.6638 26.6474 47.2975 26.1059 47.7544C25.5645 48.2112 24.8789 48.4618 24.1705 48.4616H18.3292C12.1399 48.4616 7.12366 53.5919 7.12366 59.9252C7.12366 63.2434 8.50373 66.2315 10.7028 68.3256C9.39817 70.2772 8.34575 72.3861 7.57068 74.6019C4.33944 72.0781 1.97654 68.6086 0.8116 64.6774C-0.353342 60.7463 -0.262228 56.5496 1.07223 52.6727C2.40669 48.7958 4.91794 45.4321 8.25568 43.0509C11.5934 40.6696 15.5912 39.3895 19.6913 39.3892H20.1173C21.2763 32.8358 24.7061 26.8999 29.8048 22.623C34.9036 18.346 41.3457 16.0012 48.0007 16Z" fill="#343434"/>
</svg>
