<svg width="120" height="120" viewBox="0 0 120 120" fill="none" xmlns="http://www.w3.org/2000/svg">
<path d="M36.7834 92.9628C36.4479 93.4543 36.2132 94.0075 36.0929 94.5903C35.9726 95.1732 35.9691 95.7741 36.0826 96.3583C36.1961 96.9424 36.4244 97.4983 36.7541 97.9937C37.0839 98.4891 37.5087 98.9141 38.0038 99.2442C38.499 99.5744 39.0547 99.803 39.6388 99.9169C40.223 100.031 40.8239 100.028 41.4068 99.9077C41.9897 99.7878 42.543 99.5535 43.0347 99.2182C43.5264 98.883 43.9468 98.4536 44.2714 97.9548L50.2714 88.9548C50.9178 87.9618 51.1465 86.7538 50.9077 85.5932C50.6689 84.4326 49.9821 83.413 48.9962 82.7558C48.0103 82.0985 46.8049 81.8566 45.6417 82.0826C44.4786 82.3086 43.4515 82.9842 42.7834 83.9628L36.7834 92.9628Z" fill="#1199EE"/>
<path d="M58.7834 93.0452C58.4479 93.5367 58.2132 94.0898 58.0929 94.6727C57.9726 95.2555 57.9691 95.8564 58.0826 96.4406C58.1961 97.0248 58.4244 97.5806 58.7541 98.076C59.0839 98.5714 59.5087 98.9965 60.0038 99.3266C60.499 99.6567 61.0547 99.8853 61.6388 99.9992C62.223 100.113 62.8239 100.11 63.4068 99.9901C63.9897 99.8701 64.543 99.6358 65.0347 99.3006C65.5264 98.9654 65.9468 98.5359 66.2714 98.0372L72.2714 89.0372C72.9178 88.0441 73.1465 86.8362 72.9077 85.6756C72.6689 84.515 71.9821 83.4954 70.9962 82.8381C70.0103 82.1808 68.8049 81.939 67.6417 82.165C66.4786 82.3909 65.4515 83.0666 64.7834 84.0452L58.7834 93.0452Z" fill="#1199EE"/>
<path d="M84.0314 99.2852C83.0385 98.6232 82.3493 97.5938 82.1152 96.4236C81.8812 95.2534 82.1215 94.0382 82.7834 93.0452L88.7834 84.0452C89.1081 83.5464 89.5284 83.117 90.0202 82.7818C90.5119 82.4466 91.0652 82.2122 91.6481 82.0923C92.231 81.9724 92.8319 81.9693 93.416 82.0832C94.0002 82.1971 94.5559 82.4257 95.051 82.7558C95.5462 83.0859 95.971 83.5109 96.3008 84.0063C96.6305 84.5017 96.8588 85.0576 96.9723 85.6418C97.0858 86.2259 97.0823 86.8268 96.962 87.4097C96.8417 87.9925 96.607 88.5457 96.2714 89.0372L90.2714 98.0372C89.6094 99.0301 88.5801 99.7194 87.4099 99.9534C86.2397 100.187 85.0244 99.9471 84.0314 99.2852Z" fill="#1199EE"/>
<path d="M42.7834 111.045C42.4479 111.537 42.2132 112.09 42.0929 112.673C41.9726 113.255 41.9691 113.856 42.0826 114.441C42.1961 115.025 42.4244 115.581 42.7541 116.076C43.0839 116.571 43.5087 116.996 44.0038 117.327C44.499 117.657 45.0547 117.885 45.6388 117.999C46.223 118.113 46.8239 118.11 47.4068 117.99C47.9897 117.87 48.543 117.636 49.0347 117.301C49.5264 116.965 49.9468 116.536 50.2714 116.037L56.2714 107.037C56.9178 106.044 57.1465 104.836 56.9077 103.676C56.6689 102.515 55.9821 101.495 54.9962 100.838C54.0103 100.181 52.8049 99.939 51.6417 100.165C50.4786 100.391 49.4515 101.067 48.7834 102.045L42.7834 111.045Z" fill="#1199EE"/>
<path d="M68.0314 117.285C67.0385 116.623 66.3493 115.594 66.1152 114.424C65.8812 113.253 66.1215 112.038 66.7834 111.045L72.7834 102.045C73.1081 101.546 73.5284 101.117 74.0202 100.782C74.5119 100.447 75.0652 100.212 75.6481 100.092C76.231 99.9724 76.8319 99.9693 77.416 100.083C78.0002 100.197 78.5559 100.426 79.051 100.756C79.5462 101.086 79.971 101.511 80.3008 102.006C80.6305 102.502 80.8588 103.058 80.9723 103.642C81.0858 104.226 81.0823 104.827 80.962 105.41C80.8417 105.992 80.607 106.546 80.2714 107.037L74.2714 116.037C73.6094 117.03 72.5801 117.719 71.4099 117.953C70.2397 118.187 69.0244 117.947 68.0314 117.285Z" fill="#1199EE"/>
<path d="M66.0003 17.0007C85.0123 17.0007 95.7978 29.5834 97.3669 44.7821H97.8469C110.082 44.7821 120 54.6766 120 66.8782C120 79.0829 110.082 88.9743 97.8469 88.9743H34.1537C21.9191 88.9743 12.0006 79.0829 12.0006 66.8782C12.0006 54.9196 21.5291 45.1782 33.4217 44.7941L34.6367 44.7821C36.2148 29.4844 46.9884 17.0007 66.0003 17.0007ZM66.0003 24.4861C53.2197 24.4861 42.0741 34.8306 42.0741 49.1174C42.0741 51.3825 40.106 53.1586 37.8529 53.1586H33.5897C25.8043 53.1586 19.495 59.5009 19.495 67.3253C19.495 75.1467 25.8043 81.489 33.5867 81.489H98.4079C106.193 81.489 112.5 75.1467 112.5 67.3253C112.5 59.5009 106.193 53.1586 98.4079 53.1586H94.1477C91.8916 53.1586 89.9235 51.3825 89.9235 49.1204C89.9235 34.6476 78.7839 24.4861 66.0003 24.4861Z" fill="#D9D9D9"/>
<path d="M48.0007 1C52.6025 0.997793 57.1354 2.11802 61.2064 4.26357C65.2774 6.40911 68.7636 9.51522 71.3629 13.3126C67.9386 12.9078 64.4795 12.8907 61.0514 13.2616C57.4284 10.1209 52.7955 8.39019 48.0007 8.38637C38.1482 8.38637 29.7508 15.6557 28.0707 25.4752L27.1287 30.9655C27.0097 31.6638 26.6474 32.2975 26.1059 32.7544C25.5645 33.2112 24.8789 33.4618 24.1705 33.4616H18.3292C12.1399 33.4616 7.12366 38.5919 7.12366 44.9252C7.12366 48.2434 8.50373 51.2315 10.7028 53.3256C9.39817 55.2772 8.34575 57.3861 7.57068 59.6019C4.33944 57.0781 1.97654 53.6086 0.8116 49.6774C-0.353342 45.7463 -0.262228 41.5496 1.07223 37.6727C2.40669 33.7958 4.91794 30.4321 8.25568 28.0509C11.5934 25.6696 15.5912 24.3895 19.6913 24.3892H20.1173C21.2763 17.8358 24.7061 11.8999 29.8048 7.62298C34.9036 3.34603 41.3457 1.00123 48.0007 1Z" fill="#343434"/>
</svg>
