<svg width="120" height="118" viewBox="0 0 120 118" fill="none" xmlns="http://www.w3.org/2000/svg">
<path d="M36.7834 91.9628C36.4479 92.4543 36.2132 93.0075 36.0929 93.5903C35.9726 94.1732 35.9691 94.7741 36.0826 95.3583C36.1961 95.9424 36.4244 96.4983 36.7541 96.9937C37.0839 97.4891 37.5087 97.9141 38.0038 98.2442C38.499 98.5744 39.0547 98.803 39.6388 98.9169C40.223 99.0307 40.8239 99.0276 41.4068 98.9077C41.9897 98.7878 42.543 98.5535 43.0347 98.2182C43.5264 97.883 43.9468 97.4536 44.2714 96.9548L50.2714 87.9548C50.9178 86.9618 51.1465 85.7538 50.9077 84.5932C50.6689 83.4326 49.9821 82.413 48.9962 81.7558C48.0103 81.0985 46.8049 80.8566 45.6417 81.0826C44.4786 81.3086 43.4515 81.9842 42.7834 82.9628L36.7834 91.9628Z" fill="#1199EE"/>
<path d="M58.7834 92.0452C58.4479 92.5367 58.2132 93.0898 58.0929 93.6727C57.9726 94.2555 57.9691 94.8564 58.0826 95.4406C58.1961 96.0248 58.4244 96.5806 58.7541 97.076C59.0839 97.5714 59.5087 97.9965 60.0038 98.3266C60.499 98.6567 61.0547 98.8853 61.6388 98.9992C62.223 99.1131 62.8239 99.11 63.4068 98.9901C63.9897 98.8701 64.543 98.6358 65.0347 98.3006C65.5264 97.9654 65.9468 97.5359 66.2714 97.0372L72.2714 88.0372C72.9178 87.0441 73.1465 85.8362 72.9077 84.6756C72.6689 83.515 71.9821 82.4954 70.9962 81.8381C70.0103 81.1808 68.8049 80.939 67.6417 81.165C66.4786 81.3909 65.4515 82.0666 64.7834 83.0452L58.7834 92.0452Z" fill="#1199EE"/>
<path d="M84.0314 98.2852C83.0385 97.6232 82.3493 96.5938 82.1152 95.4236C81.8812 94.2534 82.1215 93.0382 82.7834 92.0452L88.7834 83.0452C89.1081 82.5464 89.5284 82.117 90.0202 81.7818C90.5119 81.4466 91.0652 81.2122 91.6481 81.0923C92.231 80.9724 92.8319 80.9693 93.416 81.0832C94.0002 81.1971 94.5559 81.4257 95.051 81.7558C95.5462 82.0859 95.971 82.5109 96.3008 83.0063C96.6305 83.5017 96.8588 84.0576 96.9723 84.6418C97.0858 85.2259 97.0823 85.8268 96.962 86.4097C96.8417 86.9925 96.607 87.5457 96.2714 88.0372L90.2714 97.0372C89.6094 98.0301 88.5801 98.7194 87.4099 98.9534C86.2397 99.1875 85.0244 98.9471 84.0314 98.2852Z" fill="#1199EE"/>
<path d="M42.7834 110.045C42.4479 110.537 42.2132 111.09 42.0929 111.673C41.9726 112.256 41.9691 112.856 42.0826 113.441C42.1961 114.025 42.4244 114.581 42.7541 115.076C43.0839 115.571 43.5087 115.996 44.0038 116.327C44.499 116.657 45.0547 116.885 45.6388 116.999C46.223 117.113 46.8239 117.11 47.4068 116.99C47.9897 116.87 48.543 116.636 49.0347 116.301C49.5264 115.965 49.9468 115.536 50.2714 115.037L56.2714 106.037C56.9178 105.044 57.1465 103.836 56.9077 102.676C56.6689 101.515 55.9821 100.495 54.9962 99.8381C54.0103 99.1808 52.8049 98.939 51.6417 99.165C50.4786 99.3909 49.4515 100.067 48.7834 101.045L42.7834 110.045Z" fill="#1199EE"/>
<path d="M68.0314 116.285C67.0385 115.623 66.3493 114.594 66.1152 113.424C65.8812 112.253 66.1215 111.038 66.7834 110.045L72.7834 101.045C73.1081 100.546 73.5284 100.117 74.0202 99.7818C74.5119 99.4466 75.0652 99.2122 75.6481 99.0923C76.231 98.9724 76.8319 98.9693 77.416 99.0832C78.0002 99.1971 78.5559 99.4257 79.051 99.7558C79.5462 100.086 79.971 100.511 80.3008 101.006C80.6305 101.502 80.8588 102.058 80.9723 102.642C81.0858 103.226 81.0823 103.827 80.962 104.41C80.8417 104.992 80.607 105.546 80.2714 106.037L74.2714 115.037C73.6094 116.03 72.5801 116.719 71.4099 116.953C70.2397 117.187 69.0244 116.947 68.0314 116.285Z" fill="#1199EE"/>
<path d="M66.0003 16.0007C85.0123 16.0007 95.7978 28.5834 97.3669 43.7821H97.8469C110.082 43.7821 120 53.6766 120 65.8782C120 78.0829 110.082 87.9744 97.8469 87.9744H34.1537C21.9191 87.9744 12.0006 78.0829 12.0006 65.8782C12.0006 53.9196 21.5291 44.1782 33.4217 43.7941L34.6367 43.7821C36.2148 28.4844 46.9884 16.0007 66.0003 16.0007ZM66.0003 23.4861C53.2197 23.4861 42.0741 33.8306 42.0741 48.1174C42.0741 50.3825 40.106 52.1586 37.8529 52.1586H33.5897C25.8043 52.1586 19.495 58.5009 19.495 66.3253C19.495 74.1467 25.8043 80.489 33.5867 80.489H98.4079C106.193 80.489 112.5 74.1467 112.5 66.3253C112.5 58.5009 106.193 52.1586 98.4079 52.1586H94.1477C91.8916 52.1586 89.9235 50.3825 89.9235 48.1204C89.9235 33.6476 78.7839 23.4861 66.0003 23.4861Z" fill="#D9D9D9"/>
<path d="M48.0007 3.26431e-06C52.6025 -0.00220698 57.1354 1.11802 61.2064 3.26357C65.2774 5.40911 68.7636 8.51522 71.3629 12.3126C67.9386 11.9078 64.4795 11.8907 61.0514 12.2616C57.4284 9.1209 52.7955 7.3902 48.0007 7.38637C38.1482 7.38637 29.7508 14.6557 28.0707 24.4752L27.1287 29.9655C27.0097 30.6638 26.6474 31.2975 26.1059 31.7544C25.5645 32.2112 24.8789 32.4618 24.1705 32.4616H18.3292C12.1399 32.4616 7.12366 37.5919 7.12366 43.9252C7.12366 47.2434 8.50373 50.2315 10.7028 52.3256C9.39817 54.2772 8.34575 56.3861 7.57068 58.6019C4.33944 56.0781 1.97654 52.6086 0.8116 48.6774C-0.353342 44.7463 -0.262228 40.5496 1.07223 36.6727C2.40669 32.7958 4.91794 29.4321 8.25568 27.0509C11.5934 24.6696 15.5912 23.3895 19.6913 23.3892H20.1173C21.2763 16.8358 24.7061 10.8999 29.8048 6.62298C34.9036 2.34603 41.3457 0.00123306 48.0007 3.26431e-06Z" fill="#343434"/>
</svg>
