<svg width="120" height="120" viewBox="0 0 120 120" fill="none" xmlns="http://www.w3.org/2000/svg">
<path d="M91.8966 97.2562L92 97H82.8794L75.5585 109.908L75.3809 110.253C74.9494 111.2 74.8945 112.28 75.2276 113.268C75.5607 114.255 76.256 115.073 77.1682 115.551C78.0804 116.029 79.1389 116.13 80.1222 115.832C81.1056 115.534 81.9378 114.861 82.4447 113.953L91.7217 97.6014L91.8966 97.2562Z" fill="#1199EE"/>
<path d="M71.3892 97.2562L71.4952 97H62.372L55.0511 109.908L54.8761 110.253C54.4526 111.199 54.403 112.274 54.7377 113.256C55.0723 114.238 55.7656 115.051 56.6737 115.527C57.5817 116.003 58.635 116.105 59.615 115.812C60.595 115.519 61.4266 114.853 61.9373 113.953L71.2142 97.6014L71.3892 97.2562Z" fill="#1199EE"/>
<path d="M50.8844 97.2562L50.9904 97H41.8672L34.5463 109.908L34.3687 110.253C33.9372 111.2 33.8823 112.28 34.2154 113.268C34.5485 114.255 35.2438 115.073 36.156 115.551C37.0682 116.029 38.1267 116.13 39.11 115.832C40.0934 115.534 40.9255 114.861 41.4325 113.953L50.7095 97.6014L50.8844 97.2562Z" fill="#1199EE"/>
<path d="M66.5 28C83.9302 28 93.8178 40.0625 95.2533 54.634H95.6864C106.911 54.634 116 64.1184 116 75.817C116 87.5156 106.904 97 95.6926 97H37.3074C26.0894 97 17 87.5156 17 75.817C17 64.5073 25.4954 55.2675 36.1936 54.6654L37.7467 54.634C39.1946 39.9684 49.0698 28 66.5 28ZM66.5 34.2727C53.4196 34.2727 45.1593 42.5276 43.9032 55.255C43.7513 56.8034 43.0371 58.2392 41.8994 59.2837C40.7616 60.3281 39.2816 60.9066 37.7467 60.9067H37.3136C29.5421 60.9067 23.1875 67.5433 23.1875 75.817C23.1875 84.097 29.5483 90.7273 37.3074 90.7273H95.6926C103.452 90.7273 109.812 84.0907 109.812 75.817C109.812 67.537 103.452 60.9067 95.6926 60.9067H95.2533C93.7194 60.9067 92.2402 60.3292 91.1026 59.286C89.965 58.2429 89.2501 56.8085 89.0967 55.2613C87.8469 42.5841 79.5494 34.2727 66.5 34.2727Z" fill="#F2F2F2"/>
<path d="M17.5096 54.1356C17.8714 55.0111 17.8958 55.9896 17.5781 56.882C17.2604 57.7745 16.623 58.5174 15.7893 58.9672L15.4354 59.1364L8.32356 62.0938C7.41542 62.4804 6.39299 62.501 5.47001 62.1514C4.54702 61.8017 3.79492 61.1088 3.37093 60.2175C2.94693 59.3262 2.88387 58.3055 3.19492 57.3688C3.50597 56.4321 4.16705 55.6518 5.03997 55.1912L5.39387 55.0219L12.5057 52.0645C13.4436 51.6763 14.4972 51.6764 15.4349 52.0648C16.3727 52.4531 17.1209 53.198 17.5096 54.1356ZM57.5158 24.4633L57.325 24.5249C54.4784 25.4543 51.8349 26.6852 49.4161 28.187C46.111 26.7885 42.447 26.4767 38.9532 27.2967C35.4594 28.1167 32.3166 30.0259 29.9788 32.7487C27.641 35.4715 26.2291 38.8669 25.9471 42.4445C25.665 46.0222 26.5274 49.5969 28.4098 52.6523C26.093 53.4797 23.8929 54.603 21.8641 55.9944C19.0327 51.1452 17.9711 45.464 18.8605 39.9197C19.7499 34.3753 22.5351 29.3111 26.7412 25.5909C30.9473 21.8706 36.3136 19.7247 41.9251 19.5191C47.5366 19.3135 53.0488 21.0609 57.5158 24.4633ZM7.88041 25.0173L8.27124 25.1588L15.4077 28.2024C17.3465 29.021 18.2759 31.2644 17.485 33.2155C16.7464 35.0342 14.7676 35.9544 12.9304 35.4004L12.5427 35.2619L5.4031 32.2184C4.47047 31.82 3.73103 31.0721 3.3433 30.135C2.95557 29.1979 2.95041 28.1462 3.32894 27.2053C4.06751 25.3866 6.0432 24.4664 7.88041 25.0203V25.0173ZM30.5547 6.02047L30.724 6.37438L33.6783 13.4709C34.0489 14.3805 34.0575 15.3975 33.7023 16.3133C33.3472 17.2291 32.6551 17.9744 31.768 18.3962C30.881 18.8181 29.8661 18.8847 28.9316 18.5823C27.997 18.2799 27.2136 17.6314 26.7418 16.7698L26.5725 16.4159L23.6182 9.31945C23.2476 8.40979 23.239 7.3928 23.5942 6.477C23.9493 5.56119 24.6414 4.81595 25.5285 4.39406C26.4155 3.97218 27.4304 3.90562 28.3649 4.20803C29.2995 4.51044 30.083 5.1589 30.5547 6.02047ZM58.4021 4.29713C60.2516 5.0634 61.1964 7.09756 60.6486 8.97478L60.507 9.37484L57.4543 16.379C57.0676 17.2891 56.3488 18.0178 55.444 18.4169C54.5393 18.816 53.5165 18.8555 52.5837 18.5274C51.6508 18.1994 50.8779 17.5283 50.4222 16.6508C49.9664 15.7732 49.8619 14.755 50.1301 13.8032L50.2716 13.4032L53.3182 6.39899C53.514 5.92716 53.8008 5.49852 54.1623 5.13753C54.5237 4.77654 54.9528 4.49029 55.4248 4.29511C55.8969 4.09993 56.4028 3.99965 56.9137 4C57.4245 4.00035 57.9303 4.10131 58.4021 4.29713Z" fill="#FFC700"/>
</svg>
