<svg width="113" height="112" viewBox="0 0 113 112" fill="none" xmlns="http://www.w3.org/2000/svg">
<path d="M88.8966 93.2562L89 93H79.8794L72.5585 105.908L72.3809 106.253C71.9494 107.2 71.8945 108.28 72.2276 109.268C72.5607 110.255 73.256 111.073 74.1682 111.551C75.0804 112.029 76.1389 112.13 77.1222 111.832C78.1056 111.534 78.9378 110.861 79.4447 109.953L88.7217 93.6014L88.8966 93.2562Z" fill="#1199EE"/>
<path d="M68.3892 93.2562L68.4952 93H59.372L52.0511 105.908L51.8761 106.253C51.4526 107.199 51.403 108.274 51.7377 109.256C52.0723 110.238 52.7656 111.051 53.6737 111.527C54.5817 112.003 55.635 112.105 56.615 111.812C57.595 111.519 58.4266 110.853 58.9373 109.953L68.2142 93.6014L68.3892 93.2562Z" fill="#1199EE"/>
<path d="M47.8844 93.2562L47.9904 93H38.8672L31.5463 105.908L31.3687 106.253C30.9372 107.2 30.8823 108.28 31.2154 109.268C31.5485 110.255 32.2438 111.073 33.156 111.551C34.0682 112.029 35.1267 112.13 36.11 111.832C37.0934 111.534 37.9255 110.861 38.4325 109.953L47.7095 93.6014L47.8844 93.2562Z" fill="#1199EE"/>
<path d="M63.5 24C80.9302 24 90.8178 36.0625 92.2533 50.634H92.6864C103.911 50.634 113 60.1184 113 71.817C113 83.5156 103.904 93 92.6926 93H34.3074C23.0894 93 14 83.5156 14 71.817C14 60.5073 22.4954 51.2675 33.1936 50.6654L34.7467 50.634C36.1946 35.9684 46.0698 24 63.5 24ZM63.5 30.2727C50.4196 30.2727 42.1593 38.5276 40.9033 51.255C40.7513 52.8034 40.0371 54.2392 38.8994 55.2837C37.7616 56.3281 36.2816 56.9066 34.7467 56.9067H34.3136C26.5421 56.9067 20.1875 63.5433 20.1875 71.817C20.1875 80.097 26.5482 86.7273 34.3074 86.7273H92.6926C100.452 86.7273 106.812 80.0907 106.812 71.817C106.812 63.537 100.452 56.9067 92.6926 56.9067H92.2533C90.7194 56.9067 89.2402 56.3292 88.1026 55.286C86.965 54.2429 86.2501 52.8085 86.0967 51.2613C84.8469 38.5841 76.5494 30.2727 63.5 30.2727Z" fill="#F2F2F2"/>
<path d="M14.5096 50.1356C14.8714 51.0111 14.8958 51.9896 14.5781 52.882C14.2604 53.7745 13.623 54.5174 12.7893 54.9672L12.4354 55.1364L5.32356 58.0938C4.41542 58.4804 3.39299 58.501 2.47001 58.1514C1.54702 57.8017 0.794919 57.1088 0.370927 56.2175C-0.0530653 55.3262 -0.116129 54.3055 0.194919 53.3688C0.505967 52.4321 1.16705 51.6518 2.03997 51.1912L2.39387 51.0219L9.50574 48.0645C10.4436 47.6763 11.4972 47.6764 12.4349 48.0648C13.3727 48.4531 14.1209 49.198 14.5096 50.1356ZM54.5158 20.4633L54.325 20.5249C51.4784 21.4543 48.8349 22.6852 46.4161 24.187C43.111 22.7885 39.447 22.4767 35.9532 23.2967C32.4594 24.1167 29.3166 26.0259 26.9788 28.7487C24.641 31.4715 23.2291 34.8669 22.9471 38.4445C22.665 42.0222 23.5274 45.5969 25.4098 48.6523C23.093 49.4797 20.8929 50.603 18.8641 51.9944C16.0327 47.1452 14.9711 41.464 15.8605 35.9197C16.7499 30.3753 19.5351 25.3111 23.7412 21.5909C27.9473 17.8706 33.3136 15.7247 38.9251 15.5191C44.5366 15.3135 50.0488 17.0609 54.5158 20.4633ZM4.88041 21.0173L5.27124 21.1588L12.4077 24.2024C14.3465 25.021 15.2759 27.2644 14.485 29.2155C13.7464 31.0342 11.7676 31.9544 9.93043 31.4004L9.54267 31.2619L2.4031 28.2184C1.47047 27.82 0.731028 27.0721 0.343298 26.135C-0.0444313 25.1979 -0.049587 24.1462 0.328935 23.2053C1.06751 21.3866 3.0432 20.4664 4.88041 21.0203V21.0173ZM27.5547 2.02047L27.724 2.37438L30.6783 9.47086C31.0489 10.3805 31.0575 11.3975 30.7023 12.3133C30.3472 13.2291 29.6551 13.9744 28.768 14.3962C27.881 14.8181 26.8661 14.8847 25.9316 14.5823C24.997 14.2799 24.2136 13.6314 23.7418 12.7698L23.5725 12.4159L20.6182 5.31945C20.2476 4.40979 20.239 3.3928 20.5942 2.477C20.9493 1.56119 21.6414 0.815948 22.5285 0.394065C23.4155 -0.0278186 24.4304 -0.0943804 25.3649 0.208028C26.2995 0.510437 27.083 1.1589 27.5547 2.02047ZM55.4021 0.29713C57.2516 1.0634 58.1964 3.09756 57.6486 4.97478L57.507 5.37484L54.4543 12.379C54.0676 13.2891 53.3488 14.0178 52.444 14.4169C51.5393 14.816 50.5165 14.8555 49.5837 14.5274C48.6508 14.1994 47.8779 13.5283 47.4222 12.6508C46.9664 11.7732 46.8619 10.755 47.1301 9.80322L47.2716 9.40316L50.3182 2.39899C50.514 1.92716 50.8008 1.49852 51.1623 1.13753C51.5237 0.776544 51.9528 0.490289 52.4248 0.295111C52.8969 0.0999327 53.4028 -0.000345289 53.9137 8.93272e-07C54.4245 0.000347076 54.9303 0.101312 55.4021 0.29713Z" fill="#FFC700"/>
</svg>
