<svg width="109" height="104" viewBox="0 0 109 104" fill="none" xmlns="http://www.w3.org/2000/svg">
<path d="M43.9984 2.99214e-06C48.2165 -0.00202296 52.3715 1.0248 56.103 2.99145C59.8346 4.95811 63.0302 7.80523 65.4127 11.286C62.2739 10.9152 59.1033 10.8995 55.9609 11.2393C52.6401 8.36041 48.3934 6.77401 43.9984 6.7705C34.9674 6.7705 27.2702 13.431 25.7274 22.4345L24.8667 27.467C24.757 28.1066 24.4247 28.6868 23.9285 29.105C23.4323 29.5232 22.8041 29.7525 22.1552 29.7523H16.8009C11.1277 29.7523 6.5297 34.4548 6.5297 40.26C6.5297 43.3015 7.79195 46.0405 9.81045 47.96C8.61456 49.7489 7.64989 51.6819 6.93945 53.713C3.97762 51.3996 1.81174 48.2193 0.743929 44.616C-0.323881 41.0126 -0.240364 37.1658 0.98283 33.6122C2.20602 30.0586 4.50789 26.9754 7.56733 24.7927C10.6268 22.6099 14.2912 21.4366 18.0494 21.4363H18.4399C19.503 15.4294 22.6474 9.98867 27.3216 6.06882C31.9957 2.14898 37.901 0.000369714 44.0012 2.99214e-06H43.9984Z" fill="#343434"/>
<path d="M45.5255 75.8625L57.95 60.7649C58.5087 60.0859 59.3064 59.6468 60.179 59.5379C61.0516 59.4291 61.9328 59.6588 62.6412 60.1798C63.3496 60.7008 63.8314 61.4734 63.9875 62.3388C64.1435 63.2042 63.962 64.0965 63.4803 64.8322L63.2603 65.1347L55.464 74.6057H68.8235C71.601 74.6057 73.185 77.6967 71.6973 79.9324L71.4938 80.2075L53.66 102.221C53.1074 102.907 52.3128 103.354 51.44 103.471C50.5672 103.588 49.6829 103.365 48.9694 102.849C48.2559 102.333 47.7676 101.563 47.6052 100.698C47.4429 99.8322 47.6188 98.9375 48.0968 98.1979L48.3168 97.8955L61.613 81.4807H48.182C45.3935 81.4807 43.8123 78.3677 45.322 76.1347L45.5283 75.8597L45.5255 75.8625Z" fill="#E8A438" fill-opacity="0.9"/>
<path d="M59.5 16C76.924 16 86.8102 27.5335 88.2485 41.465H88.6885C99.903 41.465 108.994 50.5345 108.994 61.7188C108.994 72.9057 99.903 81.9725 88.6885 81.9725L77.3503 81.9753C78.2248 80.8203 78.7445 79.3848 78.7445 77.8255C78.7445 76.863 78.5465 75.9445 78.1862 75.1113H89.2055C96.339 75.1113 102.122 69.2978 102.122 62.1285C102.122 54.9565 96.339 49.143 89.2055 49.143H85.3005C83.2325 49.143 81.4285 47.515 81.4285 45.4415C81.4285 32.1755 71.215 22.8612 59.4972 22.8612C47.7822 22.8612 37.566 32.3433 37.566 45.4388C37.566 47.515 35.762 49.143 33.6967 49.143H29.7917C22.6555 49.143 16.8723 54.9565 16.8723 62.1285C16.8723 69.2978 22.6555 75.1113 29.789 75.1113H40.8027C40.3205 76.2266 40.1438 77.4503 40.2907 78.6565C40.4376 79.8628 40.9029 81.0082 41.6387 81.9753H30.3087C19.0915 81.9753 10 72.9057 10 61.7188C10 50.7572 18.7312 41.828 29.635 41.476L30.746 41.465C32.1925 27.4428 42.0705 16 59.4972 16H59.5Z" fill="#F2F2F2"/>
</svg>
