<svg width="120" height="120" viewBox="0 0 120 120" fill="none" xmlns="http://www.w3.org/2000/svg">
<path d="M49.9984 8C54.2165 7.99798 58.3715 9.0248 62.103 10.9915C65.8346 12.9581 69.0302 15.8052 71.4127 19.286C68.2739 18.9152 65.1033 18.8995 61.9609 19.2393C58.6401 16.3604 54.3934 14.774 49.9984 14.7705C40.9674 14.7705 33.2702 21.431 31.7274 30.4345L30.8667 35.467C30.757 36.1066 30.4247 36.6868 29.9285 37.105C29.4323 37.5232 28.8041 37.7525 28.1552 37.7523H22.8009C17.1277 37.7523 12.5297 42.4548 12.5297 48.26C12.5297 51.3015 13.7919 54.0405 15.8104 55.96C14.6146 57.7489 13.6499 59.6819 12.9394 61.713C9.97762 59.3996 7.81174 56.2193 6.74393 52.616C5.67612 49.0126 5.75964 45.1658 6.98283 41.6122C8.20602 38.0586 10.5079 34.9754 13.5673 32.7927C16.6268 30.6099 20.2912 29.4366 24.0494 29.4363H24.4399C25.503 23.4294 28.6474 17.9887 33.3216 14.0688C37.9957 10.149 43.901 8.00037 50.0012 8H49.9984Z" fill="#343434"/>
<path d="M51.5255 83.8625L63.95 68.7649C64.5087 68.0859 65.3064 67.6468 66.179 67.5379C67.0516 67.4291 67.9328 67.6588 68.6412 68.1798C69.3496 68.7008 69.8314 69.4734 69.9875 70.3388C70.1435 71.2042 69.962 72.0965 69.4803 72.8322L69.2603 73.1347L61.464 82.6057H74.8235C77.601 82.6057 79.185 85.6967 77.6973 87.9324L77.4938 88.2075L59.66 110.221C59.1074 110.907 58.3128 111.354 57.44 111.471C56.5672 111.588 55.6829 111.365 54.9694 110.849C54.2559 110.333 53.7676 109.563 53.6052 108.698C53.4429 107.832 53.6188 106.937 54.0968 106.198L54.3168 105.895L67.613 89.4807H54.182C51.3935 89.4807 49.8123 86.3677 51.322 84.1347L51.5283 83.8597L51.5255 83.8625Z" fill="#E8A438" fill-opacity="0.9"/>
<path d="M65.5 24C82.924 24 92.8102 35.5335 94.2485 49.465H94.6885C105.903 49.465 114.994 58.5345 114.994 69.7188C114.994 80.9058 105.903 89.9725 94.6885 89.9725L83.3503 89.9753C84.2247 88.8203 84.7445 87.3848 84.7445 85.8255C84.7445 84.863 84.5465 83.9445 84.1862 83.1113H95.2055C102.339 83.1113 108.122 77.2978 108.122 70.1285C108.122 62.9565 102.339 57.143 95.2055 57.143H91.3005C89.2325 57.143 87.4285 55.515 87.4285 53.4415C87.4285 40.1755 77.215 30.8612 65.4972 30.8612C53.7822 30.8612 43.566 40.3433 43.566 53.4388C43.566 55.515 41.762 57.143 39.6967 57.143H35.7917C28.6555 57.143 22.8723 62.9565 22.8723 70.1285C22.8723 77.2978 28.6555 83.1113 35.789 83.1113H46.8027C46.3205 84.2267 46.1438 85.4503 46.2907 86.6565C46.4376 87.8628 46.9029 89.0082 47.6387 89.9753H36.3087C25.0915 89.9753 16 80.9058 16 69.7188C16 58.7572 24.7312 49.828 35.635 49.476L36.746 49.465C38.1925 35.4428 48.0705 24 65.4972 24H65.5Z" fill="#F2F2F2"/>
</svg>
