<svg width="120" height="120" viewBox="0 0 120 120" fill="none" xmlns="http://www.w3.org/2000/svg">
<path d="M60.003 0C61.9215 0 63.5044 1.46117 63.6945 3.33218L63.7123 3.71232L63.7093 26.8029L78.918 13.4416C79.2833 13.1141 79.7099 12.8623 80.1732 12.7007C80.6364 12.5391 81.1271 12.471 81.6168 12.5002C82.1066 12.5294 82.5857 12.6554 83.0264 12.8709C83.4671 13.0864 83.8608 13.3871 84.1846 13.7557C84.5085 14.1242 84.756 14.5533 84.913 15.0182C85.0699 15.483 85.1332 15.9743 85.0992 16.4637C85.0651 16.9532 84.9343 17.431 84.7145 17.8696C84.4946 18.3082 84.19 18.6988 83.8182 19.019L63.7123 36.6866L63.7034 56.2788H83.3193L100.99 36.1788C101.594 35.4918 102.43 35.0518 103.338 34.9433C104.246 34.8348 105.162 35.0654 105.911 35.5908L106.229 35.8402C106.916 36.444 107.356 37.2801 107.464 38.1882C107.573 39.0964 107.342 40.0126 106.817 40.7613L106.567 41.082L93.203 56.2758H116.288C118.212 56.2758 119.792 57.7399 119.982 59.6109L120 59.9911C120 60.9096 119.659 61.7954 119.043 62.4773C118.428 63.1591 117.582 63.5886 116.668 63.6826L116.291 63.7034H93.1911L106.555 78.915C107.159 79.6023 107.488 80.4883 107.479 81.403C107.469 82.3178 107.123 83.1969 106.505 83.8717L106.217 84.1538C105.53 84.7589 104.643 85.0887 103.728 85.0799C102.813 85.0711 101.933 84.7244 101.257 84.1063L100.975 83.8153L83.3045 63.7064L63.7004 63.7034L63.6975 83.3045L83.8182 100.984C84.5052 101.588 84.9452 102.424 85.0537 103.332C85.1622 104.24 84.9317 105.156 84.4063 105.905L84.1568 106.223C83.5534 106.91 82.7175 107.351 81.8093 107.46C80.9012 107.569 79.9847 107.339 79.2358 106.814L78.918 106.561L63.6975 93.1881L63.6915 116.288C63.6912 117.206 63.3504 118.092 62.7349 118.774C62.1194 119.456 61.2731 119.885 60.3593 119.979L59.9792 120C59.0602 120 58.174 119.658 57.4921 119.042C56.8102 118.426 56.3811 117.579 56.2877 116.665L56.2669 116.285V93.2059L41.085 106.561C40.3454 107.212 39.3778 107.541 38.395 107.478C37.4123 107.415 36.4949 106.964 35.8447 106.224C35.1945 105.485 34.8647 104.517 34.9279 103.534C34.9911 102.552 35.4421 101.634 36.1818 100.984L56.2728 83.3193V63.7064H38.032C37.9581 63.8114 37.8788 63.9125 37.7944 64.0093L19.019 85.3774C18.3661 86.1058 17.4521 86.5471 16.4756 86.6053C15.4992 86.6636 14.5392 86.3341 13.8043 85.6884C13.0695 85.0428 12.6192 84.1332 12.5512 83.1574C12.4833 82.1816 12.8033 81.2184 13.4416 80.4771L28.1721 63.7064L3.71232 63.7093C2.79327 63.7098 1.90674 63.3693 1.22428 62.7537C0.54181 62.1382 0.111928 61.2914 0.0178178 60.3772L0 59.997C0 58.0755 1.4582 56.4926 3.33218 56.3055L3.71232 56.2847H25.416L13.4416 42.6382C13.1171 42.2722 12.8682 41.8458 12.7091 41.3833C12.55 40.9208 12.4838 40.4315 12.5144 39.9434C12.545 39.4552 12.6717 38.978 12.8873 38.539C13.1029 38.1 13.4032 37.7079 13.7708 37.3853C14.1384 37.0627 14.5661 36.8159 15.0293 36.6592C15.4926 36.5024 15.9823 36.4387 16.4703 36.4717C16.9582 36.5048 17.4348 36.6339 17.8727 36.8517C18.3106 37.0695 18.7012 37.3717 19.0219 37.7409L35.2938 56.2817H56.2788V36.6777L36.1818 19.0071C35.4948 18.4033 35.0548 17.5672 34.9463 16.659C34.8378 15.7509 35.0683 14.8347 35.5937 14.086L35.8432 13.7653C36.4474 13.0787 37.2837 12.6394 38.1918 12.5314C39.0999 12.4234 40.0159 12.6545 40.7642 13.1802L41.085 13.4297L56.2847 26.794L56.2877 3.71232C56.2877 1.91853 57.5617 0.421718 59.2516 0.0742453L59.6199 0.0178193L60 0H60.003Z" fill="#CFD8E8"/>
</svg>
