<svg width="120" height="120" viewBox="0 0 120 120" fill="none" xmlns="http://www.w3.org/2000/svg">
<path d="M31.7647 28.5294C31.7647 26.5802 33.3449 25 35.2941 25H81.1765C83.1257 25 84.7059 26.5802 84.7059 28.5294C84.7059 30.4787 83.1257 32.0588 81.1765 32.0588H35.2941C33.3449 32.0588 31.7647 30.4787 31.7647 28.5294Z" fill="#E9E9E9"/>
<path d="M3.52941 39.1176C3.52941 37.1684 5.10958 35.5882 7.05882 35.5882H91.7647C93.714 35.5882 95.2941 37.1684 95.2941 39.1176C95.2941 41.0669 93.714 42.6471 91.7647 42.6471H7.05883C5.10959 42.6471 3.52941 41.0669 3.52941 39.1176Z" fill="#E9E9E9"/>
<path d="M21.1765 49.7059C21.1765 47.7566 22.7566 46.1765 24.7059 46.1765H116.471C118.42 46.1765 120 47.7566 120 49.7059C120 51.6551 118.42 53.2353 116.471 53.2353H24.7059C22.7566 53.2353 21.1765 51.6551 21.1765 49.7059Z" fill="#E9E9E9"/>
<path d="M0 81.4706C0 79.5213 1.58017 77.9412 3.52941 77.9412H116.471C118.42 77.9412 120 79.5213 120 81.4706C120 83.4198 118.42 85 116.471 85H3.52942C1.58017 85 0 83.4198 0 81.4706Z" fill="#E9E9E9"/>
<path d="M31.7647 92.0588C31.7647 90.1096 33.3449 88.5294 35.2941 88.5294H91.7647C93.714 88.5294 95.2941 90.1096 95.2941 92.0588C95.2941 94.0081 93.714 95.5882 91.7647 95.5882H35.2941C33.3449 95.5882 31.7647 94.0081 31.7647 92.0588Z" fill="#E9E9E9"/>
<path d="M7.05882 60.2941C7.05882 58.3449 8.639 56.7647 10.5882 56.7647H77.6471C79.5963 56.7647 81.1765 58.3449 81.1765 60.2941C81.1765 62.2434 79.5963 63.8235 77.6471 63.8235H10.5882C8.639 63.8235 7.05882 62.2434 7.05882 60.2941Z" fill="#E9E9E9"/>
<path d="M35.2941 70.8824C35.2941 68.9331 36.8743 67.3529 38.8235 67.3529H102.353C104.302 67.3529 105.882 68.9331 105.882 70.8824C105.882 72.8316 104.302 74.4118 102.353 74.4118H38.8235C36.8743 74.4118 35.2941 72.8316 35.2941 70.8824Z" fill="#E9E9E9"/>
</svg>
