<svg width="120" height="71" viewBox="0 0 120 71" fill="none" xmlns="http://www.w3.org/2000/svg">
<path d="M31.7647 3.52941C31.7647 1.58017 33.3449 0 35.2941 0H81.1765C83.1257 0 84.7059 1.58017 84.7059 3.52941C84.7059 5.47865 83.1257 7.05882 81.1765 7.05882H35.2941C33.3449 7.05882 31.7647 5.47865 31.7647 3.52941Z" fill="#E9E9E9"/>
<path d="M3.52941 14.1176C3.52941 12.1684 5.10958 10.5882 7.05882 10.5882H91.7647C93.714 10.5882 95.2941 12.1684 95.2941 14.1176C95.2941 16.0669 93.714 17.6471 91.7647 17.6471H7.05883C5.10959 17.6471 3.52941 16.0669 3.52941 14.1176Z" fill="#E9E9E9"/>
<path d="M21.1765 24.7059C21.1765 22.7566 22.7566 21.1765 24.7059 21.1765H116.471C118.42 21.1765 120 22.7566 120 24.7059C120 26.6551 118.42 28.2353 116.471 28.2353H24.7059C22.7566 28.2353 21.1765 26.6551 21.1765 24.7059Z" fill="#E9E9E9"/>
<path d="M0 56.4706C0 54.5213 1.58017 52.9412 3.52941 52.9412H116.471C118.42 52.9412 120 54.5213 120 56.4706C120 58.4198 118.42 60 116.471 60H3.52942C1.58017 60 0 58.4198 0 56.4706Z" fill="#E9E9E9"/>
<path d="M31.7647 67.0588C31.7647 65.1096 33.3449 63.5294 35.2941 63.5294H91.7647C93.714 63.5294 95.2941 65.1096 95.2941 67.0588C95.2941 69.0081 93.714 70.5882 91.7647 70.5882H35.2941C33.3449 70.5882 31.7647 69.0081 31.7647 67.0588Z" fill="#E9E9E9"/>
<path d="M7.05882 35.2941C7.05882 33.3449 8.639 31.7647 10.5882 31.7647H77.6471C79.5963 31.7647 81.1765 33.3449 81.1765 35.2941C81.1765 37.2434 79.5963 38.8235 77.6471 38.8235H10.5882C8.639 38.8235 7.05882 37.2434 7.05882 35.2941Z" fill="#E9E9E9"/>
<path d="M35.2941 45.8824C35.2941 43.9331 36.8743 42.3529 38.8235 42.3529H102.353C104.302 42.3529 105.882 43.9331 105.882 45.8824C105.882 47.8316 104.302 49.4118 102.353 49.4118H38.8235C36.8743 49.4118 35.2941 47.8316 35.2941 45.8824Z" fill="#E9E9E9"/>
</svg>
